<svg xmlns="http://www.w3.org/2000/svg" viewBox="0 0 985.49 853.46"><defs><style>.cls-1{fill:#8a0ae5;}.cls-2{fill:#fff;}</style></defs><g id="Layer_2" data-name="Layer 2"><g id="Layer_1-2" data-name="Layer 1"><polygon class="cls-1" points="492.75 0 739.12 426.73 985.5 853.46 492.75 853.46 0 853.46 246.37 426.73 492.75 0"/><path class="cls-2" d="M386,257q53.88-92.31,106.78-185.21c54.69,96.43,111,191.93,165.64,288.32-82.73,0-165.51.31-248.28-.09-6.41,10.26-12.32,20.87-18.64,31.22,95.14.67,190.28.27,285.46.18,13.84,23.92,27.19,48.15,41.7,71.66-150.59.5-301.18.23-451.72.14,34.27-58,67.23-116.73,101.41-174.78,55.45.09,111,0,166.4.05-14.2-24.28-28.62-48.42-42-73.19-7.21,14.24-15.9,27.63-23.34,41.74C441.6,257,413.78,257.11,386,257Z"/><path class="cls-2" d="M62.21,817.41c63.16-107,124.75-215,186.65-322.81,27.86.27,55.72-.18,83.58.27-23.11,39.32-46.9,78.38-68,118.78,16.84.09,33.72-.09,50.61.09,23.83-39.33,46-79.68,69.65-119.1,27.55.05,55.09.14,82.64,0q-44.42,77.53-89.72,154.62,48.31,84,97.07,167.78c-27.86.32-55.68.23-83.54.09-24.5-44.25-50.57-87.61-75.47-131.68q-47-.27-94,0c-24.5,44.17-50.93,87.3-75.11,131.64C118.43,817.45,90.34,816.82,62.21,817.41Z"/><path class="cls-2" d="M508.07,576.65c.44-27.32.18-54.69.22-82,75.92.27,151.8-.09,227.72.18,63.15,107.05,123.8,215.71,187.23,322.63-138.32-.45-276.68-.23-415-.09.13-38,0-76.1.08-114.13q36,0,72.07-.05c.05,14,.05,28-.13,42.06,72.87.32,145.75-.09,218.63.23-35.88-59-69.07-119.55-104.14-179-38.17-.13-76.33.09-114.45-.13.05,2.64.09,7.88.14,10.48C556.35,576.79,532.21,577,508.07,576.65Z"/><path class="cls-2" d="M413.91,648.9c21.46-35.74,41.75-72.2,62.8-108.17.72,72.92.54,145.84.14,218.72C456.42,722.27,434.12,686.17,413.91,648.9Z"/><polygon class="cls-2" points="317.35 750.94 219.88 750.94 239.09 717.25 297.86 717.25 317.35 750.94"/><polygon class="cls-2" points="355.55 816.91 182.08 817.14 201.29 783.46 336.2 783.46 355.55 816.91"/></g></g></svg>